<?xml version="1.0" encoding="UTF-8" standalone="no"?>
<!DOCTYPE svg PUBLIC "-//W3C//DTD SVG 1.1//EN"
 "http://www.w3.org/Graphics/SVG/1.1/DTD/svg11.dtd">
<!-- Generated by graphviz version 2.40.1 (20161225.0304)
 -->
<!-- Title: oneDegreeRelationshipsDiagram Pages: 1 -->
<svg width="488pt" height="316pt"
 viewBox="0.00 0.00 488.00 316.20" xmlns="http://www.w3.org/2000/svg" xmlns:xlink="http://www.w3.org/1999/xlink">
<g id="graph0" class="graph" transform="scale(1 1) rotate(0) translate(4 312.2)">
<title>oneDegreeRelationshipsDiagram</title>
<polygon fill="#ffffff" stroke="transparent" points="-4,4 -4,-312.2 484,-312.2 484,4 -4,4"/>
<text text-anchor="middle" x="72.4936" y="-7.3" font-family="Helvetica,sans-Serif" font-size="11.00" fill="#000000">Generated by SchemaSpy</text>
<!-- notification -->
<g id="node1" class="node">
<title>notification</title>
<g id="a_node1"><a xlink:href="../../tables/notification.html" xlink:title="notification" target="_top">
<polygon fill="#ffffff" stroke="transparent" points="211,-38.2 211,-304.2 472,-304.2 472,-38.2 211,-38.2"/>
<polygon fill="#f5f5f5" stroke="transparent" points="213.5,-279.2 213.5,-302.2 470.5,-302.2 470.5,-279.2 213.5,-279.2"/>
<polygon fill="none" stroke="#000000" points="213.5,-279.2 213.5,-302.2 470.5,-302.2 470.5,-279.2 213.5,-279.2"/>
<text text-anchor="start" x="218.5" y="-287.8" font-family="Helvetica,sans-Serif" font-weight="bold" font-size="11.00" fill="#000000">notification</text>
<text text-anchor="start" x="435.5437" y="-287.3" font-family="Helvetica,sans-Serif" font-size="11.00" fill="#000000">[table]</text>
<polygon fill="none" stroke="#000000" points="213.5,-257.2 213.5,-279.2 318.5,-279.2 318.5,-257.2 213.5,-257.2"/>
<image xlink:href="../../images/primaryKeys.png" width="11px" height="12px" preserveAspectRatio="xMinYMin meet" x="218.5" y="-274.2"/>
<text text-anchor="start" x="233.5" y="-264.3" font-family="Helvetica,sans-Serif" font-size="11.00" fill="#000000">id</text>
<polygon fill="none" stroke="#000000" points="318.5,-257.2 318.5,-279.2 470.5,-279.2 470.5,-257.2 318.5,-257.2"/>
<text text-anchor="start" x="321.5" y="-264.9" font-family="Helvetica,sans-Serif" font-size="11.00" fill="#000000">bigserial[19]</text>
<polygon fill="none" stroke="#000000" points="213.5,-235.2 213.5,-257.2 318.5,-257.2 318.5,-235.2 213.5,-235.2"/>
<image xlink:href="../../images/foreignKeys.png" width="11px" height="12px" preserveAspectRatio="xMinYMin meet" x="218.5" y="-252.2"/>
<text text-anchor="start" x="233.5" y="-242.3" font-family="Helvetica,sans-Serif" font-size="11.00" fill="#000000">user_id</text>
<polygon fill="none" stroke="#000000" points="318.5,-235.2 318.5,-257.2 470.5,-257.2 470.5,-235.2 318.5,-235.2"/>
<text text-anchor="start" x="321.5" y="-242.9" font-family="Helvetica,sans-Serif" font-size="11.00" fill="#000000">int8[19]</text>
<polygon fill="none" stroke="#000000" points="213.5,-213.2 213.5,-235.2 318.5,-235.2 318.5,-213.2 213.5,-213.2"/>
<text text-anchor="start" x="233.5" y="-220.3" font-family="Helvetica,sans-Serif" font-size="11.00" fill="#000000">type</text>
<polygon fill="none" stroke="#000000" points="318.5,-213.2 318.5,-235.2 470.5,-235.2 470.5,-213.2 318.5,-213.2"/>
<text text-anchor="start" x="321.1339" y="-220.9" font-family="Helvetica,sans-Serif" font-size="11.00" fill="#000000">notification_type[2147483647]</text>
<polygon fill="none" stroke="#000000" points="213.5,-191.2 213.5,-213.2 318.5,-213.2 318.5,-191.2 213.5,-191.2"/>
<text text-anchor="start" x="233.5" y="-198.3" font-family="Helvetica,sans-Serif" font-size="11.00" fill="#000000">entity_type</text>
<polygon fill="none" stroke="#000000" points="318.5,-191.2 318.5,-213.2 470.5,-213.2 470.5,-191.2 318.5,-191.2"/>
<text text-anchor="start" x="321.5" y="-198.9" font-family="Helvetica,sans-Serif" font-size="11.00" fill="#000000">varchar[50]</text>
<polygon fill="none" stroke="#000000" points="213.5,-169.2 213.5,-191.2 318.5,-191.2 318.5,-169.2 213.5,-169.2"/>
<text text-anchor="start" x="233.5" y="-176.3" font-family="Helvetica,sans-Serif" font-size="11.00" fill="#000000">entity_id</text>
<polygon fill="none" stroke="#000000" points="318.5,-169.2 318.5,-191.2 470.5,-191.2 470.5,-169.2 318.5,-169.2"/>
<text text-anchor="start" x="321.5" y="-176.9" font-family="Helvetica,sans-Serif" font-size="11.00" fill="#000000">int8[19]</text>
<polygon fill="none" stroke="#000000" points="213.5,-147.2 213.5,-169.2 318.5,-169.2 318.5,-147.2 213.5,-147.2"/>
<text text-anchor="start" x="233.5" y="-154.3" font-family="Helvetica,sans-Serif" font-size="11.00" fill="#000000">title</text>
<polygon fill="none" stroke="#000000" points="318.5,-147.2 318.5,-169.2 470.5,-169.2 470.5,-147.2 318.5,-147.2"/>
<text text-anchor="start" x="321.5" y="-154.9" font-family="Helvetica,sans-Serif" font-size="11.00" fill="#000000">varchar[255]</text>
<polygon fill="none" stroke="#000000" points="213.5,-125.2 213.5,-147.2 318.5,-147.2 318.5,-125.2 213.5,-125.2"/>
<text text-anchor="start" x="233.5" y="-132.3" font-family="Helvetica,sans-Serif" font-size="11.00" fill="#000000">body</text>
<polygon fill="none" stroke="#000000" points="318.5,-125.2 318.5,-147.2 470.5,-147.2 470.5,-125.2 318.5,-125.2"/>
<text text-anchor="start" x="321.5" y="-132.9" font-family="Helvetica,sans-Serif" font-size="11.00" fill="#000000">text[2147483647]</text>
<polygon fill="none" stroke="#000000" points="213.5,-103.2 213.5,-125.2 318.5,-125.2 318.5,-103.2 213.5,-103.2"/>
<text text-anchor="start" x="233.5" y="-110.3" font-family="Helvetica,sans-Serif" font-size="11.00" fill="#000000">is_read</text>
<polygon fill="none" stroke="#000000" points="318.5,-103.2 318.5,-125.2 470.5,-125.2 470.5,-103.2 318.5,-103.2"/>
<text text-anchor="start" x="321.5" y="-110.9" font-family="Helvetica,sans-Serif" font-size="11.00" fill="#000000">bool[1]</text>
<polygon fill="none" stroke="#000000" points="213.5,-81.2 213.5,-103.2 318.5,-103.2 318.5,-81.2 213.5,-81.2"/>
<text text-anchor="start" x="233.5" y="-88.3" font-family="Helvetica,sans-Serif" font-size="11.00" fill="#000000">read_at</text>
<polygon fill="none" stroke="#000000" points="318.5,-81.2 318.5,-103.2 470.5,-103.2 470.5,-81.2 318.5,-81.2"/>
<text text-anchor="start" x="321.5" y="-88.9" font-family="Helvetica,sans-Serif" font-size="11.00" fill="#000000">timestamptz[35,6]</text>
<polygon fill="none" stroke="#000000" points="213.5,-59.2 213.5,-81.2 318.5,-81.2 318.5,-59.2 213.5,-59.2"/>
<text text-anchor="start" x="233.5" y="-66.3" font-family="Helvetica,sans-Serif" font-size="11.00" fill="#000000">created_at</text>
<polygon fill="none" stroke="#000000" points="318.5,-59.2 318.5,-81.2 470.5,-81.2 470.5,-59.2 318.5,-59.2"/>
<text text-anchor="start" x="321.5" y="-66.9" font-family="Helvetica,sans-Serif" font-size="11.00" fill="#000000">timestamptz[35,6]</text>
<polygon fill="#ffffff" stroke="transparent" points="213.5,-40.2 213.5,-59.2 470.5,-59.2 470.5,-40.2 213.5,-40.2"/>
<polygon fill="none" stroke="#000000" points="213.5,-40.2 213.5,-59.2 470.5,-59.2 470.5,-40.2 213.5,-40.2"/>
<polygon fill="#ffffff" stroke="transparent" points="214.5,-41.2 214.5,-58.2 302.5,-58.2 302.5,-41.2 214.5,-41.2"/>
<text text-anchor="start" x="216.5" y="-46.3" font-family="Helvetica,sans-Serif" font-size="11.00" fill="#000000">&lt; 1</text>
<polygon fill="#ffffff" stroke="transparent" points="302.5,-41.2 302.5,-58.2 381.5,-58.2 381.5,-41.2 302.5,-41.2"/>
<text text-anchor="start" x="338.9431" y="-46.3" font-family="Helvetica,sans-Serif" font-size="11.00" fill="#000000"> &#160;</text>
<polygon fill="#ffffff" stroke="transparent" points="381.5,-41.2 381.5,-58.2 469.5,-58.2 469.5,-41.2 381.5,-41.2"/>
<text text-anchor="start" x="451.9053" y="-46.3" font-family="Helvetica,sans-Serif" font-size="11.00" fill="#000000">0 &gt;</text>
<polygon fill="#000000" stroke="#000000" points="302.5,-41.2 302.5,-58.2 302.5,-58.2 302.5,-41.2 302.5,-41.2"/>
<polygon fill="#000000" stroke="#000000" points="381.5,-41.2 381.5,-58.2 381.5,-58.2 381.5,-41.2 381.5,-41.2"/>
<polygon fill="none" stroke="#000000" stroke-width="2" points="212,-39.2 212,-303.2 471,-303.2 471,-39.2 212,-39.2"/>
</a>
</g>
</g>
<!-- users -->
<g id="node2" class="node">
<title>users</title>
<g id="a_node2"><a xlink:href="../../tables/users.html" xlink:title="users" target="_top">
<polygon fill="#ffffff" stroke="transparent" points="8,-131.7 8,-280.7 162,-280.7 162,-131.7 8,-131.7"/>
<polygon fill="#f5f5f5" stroke="transparent" points="8,-257.2 8,-280.2 162,-280.2 162,-257.2 8,-257.2"/>
<polygon fill="none" stroke="#000000" points="8,-257.2 8,-280.2 162,-280.2 162,-257.2 8,-257.2"/>
<text text-anchor="start" x="13" y="-265.8" font-family="Helvetica,sans-Serif" font-weight="bold" font-size="11.00" fill="#000000">users</text>
<text text-anchor="start" x="127.0437" y="-265.3" font-family="Helvetica,sans-Serif" font-size="11.00" fill="#000000">[table]</text>
<polygon fill="none" stroke="#000000" points="8,-235.2 8,-257.2 162,-257.2 162,-235.2 8,-235.2"/>
<image xlink:href="../../images/primaryKeys.png" width="11px" height="12px" preserveAspectRatio="xMinYMin meet" x="13" y="-252.2"/>
<text text-anchor="start" x="28" y="-242.3" font-family="Helvetica,sans-Serif" font-size="11.00" fill="#000000">id</text>
<polygon fill="#ffffff" stroke="transparent" points="8,-213.2 8,-235.2 162,-235.2 162,-213.2 8,-213.2"/>
<polygon fill="none" stroke="#000000" points="8,-213.2 8,-235.2 162,-235.2 162,-213.2 8,-213.2"/>
<text text-anchor="start" x="28" y="-220.3" font-family="Helvetica,sans-Serif" font-size="11.00" fill="#000000">public_id</text>
<polygon fill="#ffffff" stroke="transparent" points="8,-191.2 8,-213.2 162,-213.2 162,-191.2 8,-191.2"/>
<polygon fill="none" stroke="#000000" points="8,-191.2 8,-213.2 162,-213.2 162,-191.2 8,-191.2"/>
<text text-anchor="start" x="28" y="-198.3" font-family="Helvetica,sans-Serif" font-size="11.00" fill="#000000">email</text>
<polygon fill="#ffffff" stroke="transparent" points="8,-169.2 8,-191.2 162,-191.2 162,-169.2 8,-169.2"/>
<polygon fill="none" stroke="#000000" points="8,-169.2 8,-191.2 162,-191.2 162,-169.2 8,-169.2"/>
<text text-anchor="start" x="28" y="-176.3" font-family="Helvetica,sans-Serif" font-size="11.00" fill="#000000">username</text>
<polygon fill="none" stroke="#000000" points="8,-150.2 8,-169.2 162,-169.2 162,-150.2 8,-150.2"/>
<text text-anchor="start" x="11" y="-156.3" font-family="Helvetica,sans-Serif" font-size="11.00" fill="#000000">...</text>
<polygon fill="#ffffff" stroke="transparent" points="8,-131.2 8,-150.2 162,-150.2 162,-131.2 8,-131.2"/>
<polygon fill="none" stroke="#000000" points="8,-131.2 8,-150.2 162,-150.2 162,-131.2 8,-131.2"/>
<polygon fill="#ffffff" stroke="transparent" points="9,-132.2 9,-149.2 55,-149.2 55,-132.2 9,-132.2"/>
<text text-anchor="start" x="11" y="-137.3" font-family="Helvetica,sans-Serif" font-size="11.00" fill="#000000"> &#160;</text>
<polygon fill="#ffffff" stroke="transparent" points="55,-132.2 55,-149.2 101,-149.2 101,-132.2 55,-132.2"/>
<text text-anchor="start" x="74.9431" y="-137.3" font-family="Helvetica,sans-Serif" font-size="11.00" fill="#000000"> &#160;</text>
<polygon fill="#ffffff" stroke="transparent" points="101,-132.2 101,-149.2 161,-149.2 161,-132.2 101,-132.2"/>
<text text-anchor="start" x="137.2904" y="-137.3" font-family="Helvetica,sans-Serif" font-size="11.00" fill="#000000">16 &gt;</text>
<polygon fill="#000000" stroke="#000000" points="55,-132.2 55,-149.2 55,-149.2 55,-132.2 55,-132.2"/>
<polygon fill="#000000" stroke="#000000" points="101,-132.2 101,-149.2 101,-149.2 101,-132.2 101,-132.2"/>
</a>
</g>
</g>
<!-- notification&#45;&gt;users -->
<g id="edge1" class="edge">
<title>notification:w&#45;&gt;users:e</title>
<path fill="none" stroke="#000000" d="M199.0156,-246.2C186.6771,-246.2 179.1667,-246.2 162,-246.2"/>
<polygon fill="#000000" stroke="#000000" points="205.5,-246.2001 213.5,-249.8 209.5,-246.2 213.5,-246.2 213.5,-246.2 213.5,-246.2 209.5,-246.2 213.5,-242.6 205.5,-246.2001 205.5,-246.2001"/>
<ellipse fill="none" stroke="#000000" cx="202.3" cy="-246.2001" rx="3.2" ry="3.2"/>
</g>
</g>
</svg>
