<?xml version="1.0" encoding="UTF-8" standalone="no"?>
<!DOCTYPE svg PUBLIC "-//W3C//DTD SVG 1.1//EN"
 "http://www.w3.org/Graphics/SVG/1.1/DTD/svg11.dtd">
<!-- Generated by graphviz version 2.40.1 (20161225.0304)
 -->
<!-- Title: oneDegreeRelationshipsDiagram Pages: 1 -->
<svg width="773pt" height="313pt"
 viewBox="0.00 0.00 773.00 313.20" xmlns="http://www.w3.org/2000/svg" xmlns:xlink="http://www.w3.org/1999/xlink">
<g id="graph0" class="graph" transform="scale(1 1) rotate(0) translate(4 309.2)">
<title>oneDegreeRelationshipsDiagram</title>
<polygon fill="#ffffff" stroke="transparent" points="-4,4 -4,-309.2 769,-309.2 769,4 -4,4"/>
<text text-anchor="middle" x="72.4936" y="-7.3" font-family="Helvetica,sans-Serif" font-size="11.00" fill="#000000">Generated by SchemaSpy</text>
<!-- pod_membership -->
<g id="node1" class="node">
<title>pod_membership</title>
<g id="a_node1"><a xlink:href="../../tables/pod_membership.html" xlink:title="pod_membership" target="_top">
<polygon fill="#ffffff" stroke="transparent" points="386,-76.7 386,-254.7 757,-254.7 757,-76.7 386,-76.7"/>
<polygon fill="#f5f5f5" stroke="transparent" points="388.5,-229.7 388.5,-252.7 755.5,-252.7 755.5,-229.7 388.5,-229.7"/>
<polygon fill="none" stroke="#000000" points="388.5,-229.7 388.5,-252.7 755.5,-252.7 755.5,-229.7 388.5,-229.7"/>
<text text-anchor="start" x="393.5" y="-238.3" font-family="Helvetica,sans-Serif" font-weight="bold" font-size="11.00" fill="#000000">pod_membership</text>
<text text-anchor="start" x="720.5437" y="-237.8" font-family="Helvetica,sans-Serif" font-size="11.00" fill="#000000">[table]</text>
<polygon fill="none" stroke="#000000" points="388.5,-207.7 388.5,-229.7 534.5,-229.7 534.5,-207.7 388.5,-207.7"/>
<image xlink:href="../../images/primaryKeys.png" width="11px" height="12px" preserveAspectRatio="xMinYMin meet" x="393.5" y="-224.7"/>
<text text-anchor="start" x="408.5" y="-214.8" font-family="Helvetica,sans-Serif" font-size="11.00" fill="#000000">id</text>
<polygon fill="none" stroke="#000000" points="534.5,-207.7 534.5,-229.7 755.5,-229.7 755.5,-207.7 534.5,-207.7"/>
<text text-anchor="start" x="537.5" y="-215.4" font-family="Helvetica,sans-Serif" font-size="11.00" fill="#000000">bigserial[19]</text>
<polygon fill="#ffffff" stroke="transparent" points="388.5,-185.7 388.5,-207.7 534.5,-207.7 534.5,-185.7 388.5,-185.7"/>
<polygon fill="none" stroke="#000000" points="388.5,-185.7 388.5,-207.7 534.5,-207.7 534.5,-185.7 388.5,-185.7"/>
<image xlink:href="../../images/foreignKeys.png" width="11px" height="12px" preserveAspectRatio="xMinYMin meet" x="393.5" y="-202.7"/>
<text text-anchor="start" x="408.5" y="-192.8" font-family="Helvetica,sans-Serif" font-size="11.00" fill="#000000">pod_id</text>
<polygon fill="none" stroke="#000000" points="534.5,-185.7 534.5,-207.7 755.5,-207.7 755.5,-185.7 534.5,-185.7"/>
<text text-anchor="start" x="537.5" y="-193.4" font-family="Helvetica,sans-Serif" font-size="11.00" fill="#000000">int8[19]</text>
<polygon fill="#ffffff" stroke="transparent" points="388.5,-163.7 388.5,-185.7 534.5,-185.7 534.5,-163.7 388.5,-163.7"/>
<polygon fill="none" stroke="#000000" points="388.5,-163.7 388.5,-185.7 534.5,-185.7 534.5,-163.7 388.5,-163.7"/>
<image xlink:href="../../images/foreignKeys.png" width="11px" height="12px" preserveAspectRatio="xMinYMin meet" x="393.5" y="-180.7"/>
<text text-anchor="start" x="408.5" y="-170.8" font-family="Helvetica,sans-Serif" font-size="11.00" fill="#000000">user_id</text>
<polygon fill="none" stroke="#000000" points="534.5,-163.7 534.5,-185.7 755.5,-185.7 755.5,-163.7 534.5,-163.7"/>
<text text-anchor="start" x="537.5" y="-171.4" font-family="Helvetica,sans-Serif" font-size="11.00" fill="#000000">int8[19]</text>
<polygon fill="none" stroke="#000000" points="388.5,-141.7 388.5,-163.7 534.5,-163.7 534.5,-141.7 388.5,-141.7"/>
<text text-anchor="start" x="408.5" y="-148.8" font-family="Helvetica,sans-Serif" font-size="11.00" fill="#000000">status</text>
<polygon fill="none" stroke="#000000" points="534.5,-141.7 534.5,-163.7 755.5,-163.7 755.5,-141.7 534.5,-141.7"/>
<text text-anchor="start" x="537.4057" y="-149.4" font-family="Helvetica,sans-Serif" font-size="11.00" fill="#000000">user_pod_membership_status[2147483647]</text>
<polygon fill="none" stroke="#000000" points="388.5,-119.7 388.5,-141.7 534.5,-141.7 534.5,-119.7 388.5,-119.7"/>
<text text-anchor="start" x="408.5" y="-126.8" font-family="Helvetica,sans-Serif" font-size="11.00" fill="#000000">joined_at</text>
<polygon fill="none" stroke="#000000" points="534.5,-119.7 534.5,-141.7 755.5,-141.7 755.5,-119.7 534.5,-119.7"/>
<text text-anchor="start" x="537.5" y="-127.4" font-family="Helvetica,sans-Serif" font-size="11.00" fill="#000000">timestamptz[35,6]</text>
<polygon fill="none" stroke="#000000" points="388.5,-97.7 388.5,-119.7 534.5,-119.7 534.5,-97.7 388.5,-97.7"/>
<text text-anchor="start" x="408.5" y="-104.8" font-family="Helvetica,sans-Serif" font-size="11.00" fill="#000000">created_at</text>
<polygon fill="none" stroke="#000000" points="534.5,-97.7 534.5,-119.7 755.5,-119.7 755.5,-97.7 534.5,-97.7"/>
<text text-anchor="start" x="537.5" y="-105.4" font-family="Helvetica,sans-Serif" font-size="11.00" fill="#000000">timestamptz[35,6]</text>
<polygon fill="#ffffff" stroke="transparent" points="388.5,-78.7 388.5,-97.7 755.5,-97.7 755.5,-78.7 388.5,-78.7"/>
<polygon fill="none" stroke="#000000" points="388.5,-78.7 388.5,-97.7 755.5,-97.7 755.5,-78.7 388.5,-78.7"/>
<polygon fill="#ffffff" stroke="transparent" points="389.5,-79.7 389.5,-96.7 514.5,-96.7 514.5,-79.7 389.5,-79.7"/>
<text text-anchor="start" x="391.5" y="-84.8" font-family="Helvetica,sans-Serif" font-size="11.00" fill="#000000">&lt; 2</text>
<polygon fill="#ffffff" stroke="transparent" points="514.5,-79.7 514.5,-96.7 630.5,-96.7 630.5,-79.7 514.5,-79.7"/>
<text text-anchor="start" x="569.4431" y="-84.8" font-family="Helvetica,sans-Serif" font-size="11.00" fill="#000000"> &#160;</text>
<polygon fill="#ffffff" stroke="transparent" points="630.5,-79.7 630.5,-96.7 754.5,-96.7 754.5,-79.7 630.5,-79.7"/>
<text text-anchor="start" x="736.9053" y="-84.8" font-family="Helvetica,sans-Serif" font-size="11.00" fill="#000000">0 &gt;</text>
<polygon fill="#000000" stroke="#000000" points="514.5,-79.7 514.5,-96.7 514.5,-96.7 514.5,-79.7 514.5,-79.7"/>
<polygon fill="#000000" stroke="#000000" points="630.5,-79.7 630.5,-96.7 630.5,-96.7 630.5,-79.7 630.5,-79.7"/>
<polygon fill="none" stroke="#000000" stroke-width="2" points="387,-77.7 387,-253.7 756,-253.7 756,-77.7 387,-77.7"/>
</a>
</g>
</g>
<!-- pods -->
<g id="node2" class="node">
<title>pods</title>
<g id="a_node2"><a xlink:href="../../tables/pods.html" xlink:title="pods" target="_top">
<polygon fill="#ffffff" stroke="transparent" points="211,-130.2 211,-301.2 337,-301.2 337,-130.2 211,-130.2"/>
<polygon fill="#f5f5f5" stroke="transparent" points="211,-277.7 211,-300.7 337,-300.7 337,-277.7 211,-277.7"/>
<polygon fill="none" stroke="#000000" points="211,-277.7 211,-300.7 337,-300.7 337,-277.7 211,-277.7"/>
<text text-anchor="start" x="216" y="-286.3" font-family="Helvetica,sans-Serif" font-weight="bold" font-size="11.00" fill="#000000">pods</text>
<text text-anchor="start" x="302.0437" y="-285.8" font-family="Helvetica,sans-Serif" font-size="11.00" fill="#000000">[table]</text>
<polygon fill="none" stroke="#000000" points="211,-255.7 211,-277.7 337,-277.7 337,-255.7 211,-255.7"/>
<image xlink:href="../../images/primaryKeys.png" width="11px" height="12px" preserveAspectRatio="xMinYMin meet" x="216" y="-272.7"/>
<text text-anchor="start" x="231" y="-262.8" font-family="Helvetica,sans-Serif" font-size="11.00" fill="#000000">id</text>
<polygon fill="#ffffff" stroke="transparent" points="211,-233.7 211,-255.7 337,-255.7 337,-233.7 211,-233.7"/>
<polygon fill="none" stroke="#000000" points="211,-233.7 211,-255.7 337,-255.7 337,-233.7 211,-233.7"/>
<text text-anchor="start" x="231" y="-240.8" font-family="Helvetica,sans-Serif" font-size="11.00" fill="#000000">public_id</text>
<polygon fill="#ffffff" stroke="transparent" points="211,-211.7 211,-233.7 337,-233.7 337,-211.7 211,-211.7"/>
<polygon fill="none" stroke="#000000" points="211,-211.7 211,-233.7 337,-233.7 337,-211.7 211,-211.7"/>
<text text-anchor="start" x="231" y="-218.8" font-family="Helvetica,sans-Serif" font-size="11.00" fill="#000000">slug</text>
<polygon fill="none" stroke="#000000" points="211,-189.7 211,-211.7 337,-211.7 337,-189.7 211,-189.7"/>
<image xlink:href="../../images/foreignKeys.png" width="11px" height="12px" preserveAspectRatio="xMinYMin meet" x="216" y="-206.7"/>
<text text-anchor="start" x="231" y="-196.8" font-family="Helvetica,sans-Serif" font-size="11.00" fill="#000000">owner_id</text>
<polygon fill="none" stroke="#000000" points="211,-167.7 211,-189.7 337,-189.7 337,-167.7 211,-167.7"/>
<image xlink:href="../../images/foreignKeys.png" width="11px" height="12px" preserveAspectRatio="xMinYMin meet" x="216" y="-184.7"/>
<text text-anchor="start" x="231" y="-174.8" font-family="Helvetica,sans-Serif" font-size="11.00" fill="#000000">skill_id</text>
<polygon fill="none" stroke="#000000" points="211,-148.7 211,-167.7 337,-167.7 337,-148.7 211,-148.7"/>
<text text-anchor="start" x="214" y="-154.8" font-family="Helvetica,sans-Serif" font-size="11.00" fill="#000000">...</text>
<polygon fill="#ffffff" stroke="transparent" points="211,-129.7 211,-148.7 337,-148.7 337,-129.7 211,-129.7"/>
<polygon fill="none" stroke="#000000" points="211,-129.7 211,-148.7 337,-148.7 337,-129.7 211,-129.7"/>
<polygon fill="#ffffff" stroke="transparent" points="212,-130.7 212,-147.7 257,-147.7 257,-130.7 212,-130.7"/>
<text text-anchor="start" x="214" y="-135.8" font-family="Helvetica,sans-Serif" font-size="11.00" fill="#000000">&lt; 2</text>
<polygon fill="#ffffff" stroke="transparent" points="257,-130.7 257,-147.7 292,-147.7 292,-130.7 257,-130.7"/>
<text text-anchor="start" x="271.4431" y="-135.8" font-family="Helvetica,sans-Serif" font-size="11.00" fill="#000000"> &#160;</text>
<polygon fill="#ffffff" stroke="transparent" points="292,-130.7 292,-147.7 336,-147.7 336,-130.7 292,-130.7"/>
<text text-anchor="start" x="318.4053" y="-135.8" font-family="Helvetica,sans-Serif" font-size="11.00" fill="#000000">3 &gt;</text>
<polygon fill="#000000" stroke="#000000" points="257,-130.7 257,-147.7 257,-147.7 257,-130.7 257,-130.7"/>
<polygon fill="#000000" stroke="#000000" points="292,-130.7 292,-147.7 292,-147.7 292,-130.7 292,-130.7"/>
</a>
</g>
</g>
<!-- pod_membership&#45;&gt;pods -->
<g id="edge1" class="edge">
<title>pod_membership:w&#45;&gt;pods:e</title>
<path fill="none" stroke="#000000" d="M374.6187,-201.2929C356.3507,-216.866 369.5889,-266.7 337,-266.7"/>
<polygon fill="#000000" stroke="#000000" points="380.9049,-199.213 389.6309,-200.1178 384.7025,-197.9565 388.5,-196.7 388.5,-196.7 388.5,-196.7 384.7025,-197.9565 387.3691,-193.2822 380.9049,-199.213 380.9049,-199.213"/>
<ellipse fill="none" stroke="#000000" cx="377.8669" cy="-200.2182" rx="3.2" ry="3.2"/>
</g>
<!-- users -->
<g id="node3" class="node">
<title>users</title>
<g id="a_node3"><a xlink:href="../../tables/users.html" xlink:title="users" target="_top">
<polygon fill="#ffffff" stroke="transparent" points="8,-38.2 8,-187.2 162,-187.2 162,-38.2 8,-38.2"/>
<polygon fill="#f5f5f5" stroke="transparent" points="8,-163.7 8,-186.7 162,-186.7 162,-163.7 8,-163.7"/>
<polygon fill="none" stroke="#000000" points="8,-163.7 8,-186.7 162,-186.7 162,-163.7 8,-163.7"/>
<text text-anchor="start" x="13" y="-172.3" font-family="Helvetica,sans-Serif" font-weight="bold" font-size="11.00" fill="#000000">users</text>
<text text-anchor="start" x="127.0437" y="-171.8" font-family="Helvetica,sans-Serif" font-size="11.00" fill="#000000">[table]</text>
<polygon fill="none" stroke="#000000" points="8,-141.7 8,-163.7 162,-163.7 162,-141.7 8,-141.7"/>
<image xlink:href="../../images/primaryKeys.png" width="11px" height="12px" preserveAspectRatio="xMinYMin meet" x="13" y="-158.7"/>
<text text-anchor="start" x="28" y="-148.8" font-family="Helvetica,sans-Serif" font-size="11.00" fill="#000000">id</text>
<polygon fill="#ffffff" stroke="transparent" points="8,-119.7 8,-141.7 162,-141.7 162,-119.7 8,-119.7"/>
<polygon fill="none" stroke="#000000" points="8,-119.7 8,-141.7 162,-141.7 162,-119.7 8,-119.7"/>
<text text-anchor="start" x="28" y="-126.8" font-family="Helvetica,sans-Serif" font-size="11.00" fill="#000000">public_id</text>
<polygon fill="#ffffff" stroke="transparent" points="8,-97.7 8,-119.7 162,-119.7 162,-97.7 8,-97.7"/>
<polygon fill="none" stroke="#000000" points="8,-97.7 8,-119.7 162,-119.7 162,-97.7 8,-97.7"/>
<text text-anchor="start" x="28" y="-104.8" font-family="Helvetica,sans-Serif" font-size="11.00" fill="#000000">email</text>
<polygon fill="#ffffff" stroke="transparent" points="8,-75.7 8,-97.7 162,-97.7 162,-75.7 8,-75.7"/>
<polygon fill="none" stroke="#000000" points="8,-75.7 8,-97.7 162,-97.7 162,-75.7 8,-75.7"/>
<text text-anchor="start" x="28" y="-82.8" font-family="Helvetica,sans-Serif" font-size="11.00" fill="#000000">username</text>
<polygon fill="none" stroke="#000000" points="8,-56.7 8,-75.7 162,-75.7 162,-56.7 8,-56.7"/>
<text text-anchor="start" x="11" y="-62.8" font-family="Helvetica,sans-Serif" font-size="11.00" fill="#000000">...</text>
<polygon fill="#ffffff" stroke="transparent" points="8,-37.7 8,-56.7 162,-56.7 162,-37.7 8,-37.7"/>
<polygon fill="none" stroke="#000000" points="8,-37.7 8,-56.7 162,-56.7 162,-37.7 8,-37.7"/>
<polygon fill="#ffffff" stroke="transparent" points="9,-38.7 9,-55.7 55,-55.7 55,-38.7 9,-38.7"/>
<text text-anchor="start" x="11" y="-43.8" font-family="Helvetica,sans-Serif" font-size="11.00" fill="#000000"> &#160;</text>
<polygon fill="#ffffff" stroke="transparent" points="55,-38.7 55,-55.7 101,-55.7 101,-38.7 55,-38.7"/>
<text text-anchor="start" x="74.9431" y="-43.8" font-family="Helvetica,sans-Serif" font-size="11.00" fill="#000000"> &#160;</text>
<polygon fill="#ffffff" stroke="transparent" points="101,-38.7 101,-55.7 161,-55.7 161,-38.7 101,-38.7"/>
<text text-anchor="start" x="137.2904" y="-43.8" font-family="Helvetica,sans-Serif" font-size="11.00" fill="#000000">16 &gt;</text>
<polygon fill="#000000" stroke="#000000" points="55,-38.7 55,-55.7 55,-55.7 55,-38.7 55,-38.7"/>
<polygon fill="#000000" stroke="#000000" points="101,-38.7 101,-55.7 101,-55.7 101,-38.7 101,-38.7"/>
</a>
</g>
</g>
<!-- pod_membership&#45;&gt;users -->
<g id="edge2" class="edge">
<title>pod_membership:w&#45;&gt;users:e</title>
<path fill="none" stroke="#000000" d="M374.5518,-170.1534C361.9137,-159.0214 367.3541,-130.5206 345,-119.7 288.1941,-92.2027 262.5224,-98.7214 203,-119.7 180.9387,-127.4755 185.3915,-152.7 162,-152.7"/>
<polygon fill="#000000" stroke="#000000" points="380.8939,-172.2207 387.3843,-178.1228 384.6969,-173.4603 388.5,-174.7 388.5,-174.7 388.5,-174.7 384.6969,-173.4603 389.6157,-171.2772 380.8939,-172.2207 380.8939,-172.2207"/>
<ellipse fill="none" stroke="#000000" cx="377.8514" cy="-171.2289" rx="3.2" ry="3.2"/>
</g>
<!-- pods&#45;&gt;users -->
<g id="edge3" class="edge">
<title>pods:w&#45;&gt;users:e</title>
<path fill="none" stroke="#000000" d="M197.3634,-195.9221C183.571,-183.7811 186.5315,-152.7 162,-152.7"/>
<polygon fill="#000000" stroke="#000000" points="203.45,-198.0546 209.8096,-204.0975 207.225,-199.3773 211,-200.7 211,-200.7 211,-200.7 207.225,-199.3773 212.1904,-197.3025 203.45,-198.0546 203.45,-198.0546"/>
<ellipse fill="none" stroke="#000000" cx="200.43" cy="-196.9965" rx="3.2" ry="3.2"/>
</g>
</g>
</svg>
