<?xml version="1.0" encoding="UTF-8" standalone="no"?>
<!DOCTYPE svg PUBLIC "-//W3C//DTD SVG 1.1//EN"
 "http://www.w3.org/Graphics/SVG/1.1/DTD/svg11.dtd">
<!-- Generated by graphviz version 2.40.1 (20161225.0304)
 -->
<!-- Title: oneDegreeRelationshipsDiagram Pages: 1 -->
<svg width="643pt" height="223pt"
 viewBox="0.00 0.00 643.25 223.07" xmlns="http://www.w3.org/2000/svg" xmlns:xlink="http://www.w3.org/1999/xlink">
<g id="graph0" class="graph" transform="scale(1 1) rotate(0) translate(4 219.0739)">
<title>oneDegreeRelationshipsDiagram</title>
<polygon fill="#ffffff" stroke="transparent" points="-4,4 -4,-219.0739 639.2533,-219.0739 639.2533,4 -4,4"/>
<text text-anchor="middle" x="72.4936" y="-7.3" font-family="Helvetica,sans-Serif" font-size="11.00" fill="#000000">Generated by SchemaSpy</text>
<!-- roadmap_version -->
<g id="node1" class="node">
<title>roadmap_version</title>
<g id="a_node1"><a xlink:href="../../tables/roadmap_version.html" xlink:title="roadmap_version" target="_top">
<polygon fill="#ffffff" stroke="transparent" points="460,-87.7 460,-192.7 624,-192.7 624,-87.7 460,-87.7"/>
<polygon fill="#f5f5f5" stroke="transparent" points="460,-169.2 460,-192.2 624,-192.2 624,-169.2 460,-169.2"/>
<polygon fill="none" stroke="#000000" points="460,-169.2 460,-192.2 624,-192.2 624,-169.2 460,-169.2"/>
<text text-anchor="start" x="465" y="-177.8" font-family="Helvetica,sans-Serif" font-weight="bold" font-size="11.00" fill="#000000">roadmap_version</text>
<text text-anchor="start" x="589.5219" y="-177.3" font-family="Helvetica,sans-Serif" font-size="11.00" fill="#000000">[table]</text>
<polygon fill="none" stroke="#000000" points="460,-147.2 460,-169.2 624,-169.2 624,-147.2 460,-147.2"/>
<image xlink:href="../../images/primaryKeys.png" width="11px" height="12px" preserveAspectRatio="xMinYMin meet" x="465" y="-164.2"/>
<text text-anchor="start" x="489" y="-154.3" font-family="Helvetica,sans-Serif" font-size="11.00" fill="#000000">id</text>
<polygon fill="none" stroke="#000000" points="460,-125.2 460,-147.2 624,-147.2 624,-125.2 460,-125.2"/>
<image xlink:href="../../images/foreignKeys.png" width="11px" height="12px" preserveAspectRatio="xMinYMin meet" x="465" y="-142.2"/>
<text text-anchor="start" x="489" y="-132.3" font-family="Helvetica,sans-Serif" font-size="11.00" fill="#000000">roadmap_id</text>
<polygon fill="none" stroke="#000000" points="460,-106.2 460,-125.2 624,-125.2 624,-106.2 460,-106.2"/>
<text text-anchor="start" x="463" y="-112.3" font-family="Helvetica,sans-Serif" font-size="11.00" fill="#000000">...</text>
<polygon fill="#ffffff" stroke="transparent" points="460,-87.2 460,-106.2 624,-106.2 624,-87.2 460,-87.2"/>
<polygon fill="none" stroke="#000000" points="460,-87.2 460,-106.2 624,-106.2 624,-87.2 460,-87.2"/>
<polygon fill="#ffffff" stroke="transparent" points="461,-88.2 461,-105.2 518,-105.2 518,-88.2 461,-88.2"/>
<text text-anchor="start" x="463" y="-93.3" font-family="Helvetica,sans-Serif" font-size="11.00" fill="#000000">&lt; 1</text>
<polygon fill="#ffffff" stroke="transparent" points="518,-88.2 518,-105.2 566,-105.2 566,-88.2 518,-88.2"/>
<text text-anchor="start" x="538.9431" y="-93.3" font-family="Helvetica,sans-Serif" font-size="11.00" fill="#000000"> &#160;</text>
<polygon fill="#ffffff" stroke="transparent" points="566,-88.2 566,-105.2 623,-105.2 623,-88.2 566,-88.2"/>
<text text-anchor="start" x="605.4053" y="-93.3" font-family="Helvetica,sans-Serif" font-size="11.00" fill="#000000">4 &gt;</text>
<polygon fill="#000000" stroke="#000000" points="518,-88.2 518,-105.2 518,-105.2 518,-88.2 518,-88.2"/>
<polygon fill="#000000" stroke="#000000" points="566,-88.2 566,-105.2 566,-105.2 566,-88.2 566,-88.2"/>
</a>
</g>
</g>
<!-- roadmaps -->
<g id="node2" class="node">
<title>roadmaps</title>
<g id="a_node2"><a xlink:href="../../tables/roadmaps.html" xlink:title="roadmaps" target="_top">
<polygon fill="#ffffff" stroke="transparent" points="160,-38.2 160,-194.2 411,-194.2 411,-38.2 160,-38.2"/>
<polygon fill="#f5f5f5" stroke="transparent" points="162.5,-169.2 162.5,-192.2 409.5,-192.2 409.5,-169.2 162.5,-169.2"/>
<polygon fill="none" stroke="#000000" points="162.5,-169.2 162.5,-192.2 409.5,-192.2 409.5,-169.2 162.5,-169.2"/>
<text text-anchor="start" x="167.5" y="-177.8" font-family="Helvetica,sans-Serif" font-weight="bold" font-size="11.00" fill="#000000">roadmaps</text>
<text text-anchor="start" x="374.5437" y="-177.3" font-family="Helvetica,sans-Serif" font-size="11.00" fill="#000000">[table]</text>
<polygon fill="none" stroke="#000000" points="162.5,-147.2 162.5,-169.2 317.5,-169.2 317.5,-147.2 162.5,-147.2"/>
<image xlink:href="../../images/primaryKeys.png" width="11px" height="12px" preserveAspectRatio="xMinYMin meet" x="167.5" y="-164.2"/>
<text text-anchor="start" x="182.5" y="-154.3" font-family="Helvetica,sans-Serif" font-size="11.00" fill="#000000">id</text>
<polygon fill="none" stroke="#000000" points="317.5,-147.2 317.5,-169.2 409.5,-169.2 409.5,-147.2 317.5,-147.2"/>
<text text-anchor="start" x="320.5" y="-154.9" font-family="Helvetica,sans-Serif" font-size="11.00" fill="#000000">bigserial[19]</text>
<polygon fill="none" stroke="#000000" points="162.5,-125.2 162.5,-147.2 317.5,-147.2 317.5,-125.2 162.5,-125.2"/>
<image xlink:href="../../images/foreignKeys.png" width="11px" height="12px" preserveAspectRatio="xMinYMin meet" x="167.5" y="-142.2"/>
<text text-anchor="start" x="182.5" y="-132.3" font-family="Helvetica,sans-Serif" font-size="11.00" fill="#000000">current_version_id</text>
<polygon fill="none" stroke="#000000" points="317.5,-125.2 317.5,-147.2 409.5,-147.2 409.5,-125.2 317.5,-125.2"/>
<text text-anchor="start" x="320.5" y="-132.9" font-family="Helvetica,sans-Serif" font-size="11.00" fill="#000000">int8[19]</text>
<polygon fill="none" stroke="#000000" points="162.5,-103.2 162.5,-125.2 317.5,-125.2 317.5,-103.2 162.5,-103.2"/>
<image xlink:href="../../images/foreignKeys.png" width="11px" height="12px" preserveAspectRatio="xMinYMin meet" x="167.5" y="-120.2"/>
<text text-anchor="start" x="182.5" y="-110.3" font-family="Helvetica,sans-Serif" font-size="11.00" fill="#000000">skill_id</text>
<polygon fill="none" stroke="#000000" points="317.5,-103.2 317.5,-125.2 409.5,-125.2 409.5,-103.2 317.5,-103.2"/>
<text text-anchor="start" x="320.5" y="-110.9" font-family="Helvetica,sans-Serif" font-size="11.00" fill="#000000">int8[19]</text>
<polygon fill="none" stroke="#000000" points="162.5,-81.2 162.5,-103.2 317.5,-103.2 317.5,-81.2 162.5,-81.2"/>
<text text-anchor="start" x="182.5" y="-88.3" font-family="Helvetica,sans-Serif" font-size="11.00" fill="#000000">created_at</text>
<polygon fill="none" stroke="#000000" points="317.5,-81.2 317.5,-103.2 409.5,-103.2 409.5,-81.2 317.5,-81.2"/>
<text text-anchor="start" x="320.1023" y="-88.9" font-family="Helvetica,sans-Serif" font-size="11.00" fill="#000000">timestamptz[35,6]</text>
<polygon fill="none" stroke="#000000" points="162.5,-59.2 162.5,-81.2 317.5,-81.2 317.5,-59.2 162.5,-59.2"/>
<text text-anchor="start" x="182.5" y="-66.3" font-family="Helvetica,sans-Serif" font-size="11.00" fill="#000000">updated_at</text>
<polygon fill="none" stroke="#000000" points="317.5,-59.2 317.5,-81.2 409.5,-81.2 409.5,-59.2 317.5,-59.2"/>
<text text-anchor="start" x="320.1023" y="-66.9" font-family="Helvetica,sans-Serif" font-size="11.00" fill="#000000">timestamptz[35,6]</text>
<polygon fill="#ffffff" stroke="transparent" points="162.5,-40.2 162.5,-59.2 409.5,-59.2 409.5,-40.2 162.5,-40.2"/>
<polygon fill="none" stroke="#000000" points="162.5,-40.2 162.5,-59.2 409.5,-59.2 409.5,-40.2 162.5,-40.2"/>
<polygon fill="#ffffff" stroke="transparent" points="163.5,-41.2 163.5,-58.2 248.5,-58.2 248.5,-41.2 163.5,-41.2"/>
<text text-anchor="start" x="165.5" y="-46.3" font-family="Helvetica,sans-Serif" font-size="11.00" fill="#000000">&lt; 2</text>
<polygon fill="#ffffff" stroke="transparent" points="248.5,-41.2 248.5,-58.2 324.5,-58.2 324.5,-41.2 248.5,-41.2"/>
<text text-anchor="start" x="283.4431" y="-46.3" font-family="Helvetica,sans-Serif" font-size="11.00" fill="#000000"> &#160;</text>
<polygon fill="#ffffff" stroke="transparent" points="324.5,-41.2 324.5,-58.2 408.5,-58.2 408.5,-41.2 324.5,-41.2"/>
<text text-anchor="start" x="390.9053" y="-46.3" font-family="Helvetica,sans-Serif" font-size="11.00" fill="#000000">1 &gt;</text>
<polygon fill="#000000" stroke="#000000" points="248.5,-41.2 248.5,-58.2 248.5,-58.2 248.5,-41.2 248.5,-41.2"/>
<polygon fill="#000000" stroke="#000000" points="324.5,-41.2 324.5,-58.2 324.5,-58.2 324.5,-41.2 324.5,-41.2"/>
<polygon fill="none" stroke="#000000" stroke-width="2" points="161,-39.2 161,-193.2 410,-193.2 410,-39.2 161,-39.2"/>
</a>
</g>
</g>
<!-- roadmap_version&#45;&gt;roadmaps -->
<g id="edge1" class="edge">
<title>roadmap_version:w&#45;&gt;roadmaps:e</title>
<path fill="none" stroke="#000000" d="M445.5981,-139.4462C433.4282,-145.5658 428.0526,-158.2 409.5,-158.2"/>
<polygon fill="#000000" stroke="#000000" points="452.1958,-137.9591 460.7916,-139.7119 456.0979,-137.0796 460,-136.2 460,-136.2 460,-136.2 456.0979,-137.0796 459.2084,-132.6881 452.1958,-137.9591 452.1958,-137.9591"/>
<ellipse fill="none" stroke="#000000" cx="449.0741" cy="-138.6627" rx="3.2" ry="3.2"/>
</g>
<!-- roadmaps&#45;&gt;roadmap_version -->
<g id="edge2" class="edge">
<title>roadmaps:w&#45;&gt;roadmap_version:e</title>
<path fill="none" stroke="#000000" d="M148.9754,-141.9847C139.1874,-154.2826 147.4298,-183.1298 162.5,-198.2 186.582,-222.282 602.0795,-218.7815 624,-196.7 636.055,-184.5564 641.1111,-158.2 624,-158.2"/>
<polygon fill="#000000" stroke="#000000" points="155.1446,-139.3461 163.9157,-139.5099 158.8223,-137.773 162.5,-136.2 162.5,-136.2 162.5,-136.2 158.8223,-137.773 161.0843,-132.8901 155.1446,-139.3461 155.1446,-139.3461"/>
<ellipse fill="none" stroke="#000000" cx="152.2024" cy="-140.6045" rx="3.2" ry="3.2"/>
</g>
<!-- skills -->
<g id="node3" class="node">
<title>skills</title>
<g id="a_node3"><a xlink:href="../../tables/skills.html" xlink:title="skills" target="_top">
<polygon fill="#ffffff" stroke="transparent" points="8,-43.7 8,-148.7 111,-148.7 111,-43.7 8,-43.7"/>
<polygon fill="#f5f5f5" stroke="transparent" points="8.5,-125.2 8.5,-148.2 111.5,-148.2 111.5,-125.2 8.5,-125.2"/>
<polygon fill="none" stroke="#000000" points="8.5,-125.2 8.5,-148.2 111.5,-148.2 111.5,-125.2 8.5,-125.2"/>
<text text-anchor="start" x="13.5" y="-133.8" font-family="Helvetica,sans-Serif" font-weight="bold" font-size="11.00" fill="#000000">skills</text>
<text text-anchor="start" x="76.5437" y="-133.3" font-family="Helvetica,sans-Serif" font-size="11.00" fill="#000000">[table]</text>
<polygon fill="none" stroke="#000000" points="8.5,-103.2 8.5,-125.2 111.5,-125.2 111.5,-103.2 8.5,-103.2"/>
<image xlink:href="../../images/primaryKeys.png" width="11px" height="12px" preserveAspectRatio="xMinYMin meet" x="13.5" y="-120.2"/>
<text text-anchor="start" x="28.5" y="-110.3" font-family="Helvetica,sans-Serif" font-size="11.00" fill="#000000">id</text>
<polygon fill="#ffffff" stroke="transparent" points="8.5,-81.2 8.5,-103.2 111.5,-103.2 111.5,-81.2 8.5,-81.2"/>
<polygon fill="none" stroke="#000000" points="8.5,-81.2 8.5,-103.2 111.5,-103.2 111.5,-81.2 8.5,-81.2"/>
<text text-anchor="start" x="28.5" y="-88.3" font-family="Helvetica,sans-Serif" font-size="11.00" fill="#000000">slug</text>
<polygon fill="none" stroke="#000000" points="8.5,-62.2 8.5,-81.2 111.5,-81.2 111.5,-62.2 8.5,-62.2"/>
<text text-anchor="start" x="11.5" y="-68.3" font-family="Helvetica,sans-Serif" font-size="11.00" fill="#000000">...</text>
<polygon fill="#ffffff" stroke="transparent" points="8.5,-43.2 8.5,-62.2 111.5,-62.2 111.5,-43.2 8.5,-43.2"/>
<polygon fill="none" stroke="#000000" points="8.5,-43.2 8.5,-62.2 111.5,-62.2 111.5,-43.2 8.5,-43.2"/>
<polygon fill="#ffffff" stroke="transparent" points="9.5,-44.2 9.5,-61.2 40.5,-61.2 40.5,-44.2 9.5,-44.2"/>
<text text-anchor="start" x="11.5" y="-49.3" font-family="Helvetica,sans-Serif" font-size="11.00" fill="#000000"> &#160;</text>
<polygon fill="#ffffff" stroke="transparent" points="40.5,-44.2 40.5,-61.2 71.5,-61.2 71.5,-44.2 40.5,-44.2"/>
<text text-anchor="start" x="52.9431" y="-49.3" font-family="Helvetica,sans-Serif" font-size="11.00" fill="#000000"> &#160;</text>
<polygon fill="#ffffff" stroke="transparent" points="71.5,-44.2 71.5,-61.2 110.5,-61.2 110.5,-44.2 71.5,-44.2"/>
<text text-anchor="start" x="92.9053" y="-49.3" font-family="Helvetica,sans-Serif" font-size="11.00" fill="#000000">5 &gt;</text>
<polygon fill="#000000" stroke="#000000" points="40.5,-44.2 40.5,-61.2 40.5,-61.2 40.5,-44.2 40.5,-44.2"/>
<polygon fill="#000000" stroke="#000000" points="71.5,-44.2 71.5,-61.2 71.5,-61.2 71.5,-44.2 71.5,-44.2"/>
</a>
</g>
</g>
<!-- roadmaps&#45;&gt;skills -->
<g id="edge3" class="edge">
<title>roadmaps:w&#45;&gt;skills:e</title>
<path fill="none" stroke="#000000" d="M147.776,-114.2C135.7815,-114.2 128.3229,-114.2 111.5,-114.2"/>
<polygon fill="#000000" stroke="#000000" points="154.5,-114.2001 162.5,-117.8 158.5,-114.2 162.5,-114.2 162.5,-114.2 162.5,-114.2 158.5,-114.2 162.5,-110.6 154.5,-114.2001 154.5,-114.2001"/>
<ellipse fill="none" stroke="#000000" cx="151.3" cy="-114.2001" rx="3.2" ry="3.2"/>
</g>
</g>
</svg>
