<?xml version="1.0" encoding="UTF-8" standalone="no"?>
<!DOCTYPE svg PUBLIC "-//W3C//DTD SVG 1.1//EN"
 "http://www.w3.org/Graphics/SVG/1.1/DTD/svg11.dtd">
<!-- Generated by graphviz version 2.40.1 (20161225.0304)
 -->
<!-- Title: oneDegreeRelationshipsDiagram Pages: 1 -->
<svg width="597pt" height="347pt"
 viewBox="0.00 0.00 597.00 347.20" xmlns="http://www.w3.org/2000/svg" xmlns:xlink="http://www.w3.org/1999/xlink">
<g id="graph0" class="graph" transform="scale(1 1) rotate(0) translate(4 343.2)">
<title>oneDegreeRelationshipsDiagram</title>
<polygon fill="#ffffff" stroke="transparent" points="-4,4 -4,-343.2 593,-343.2 593,4 -4,4"/>
<text text-anchor="middle" x="72.4936" y="-7.3" font-family="Helvetica,sans-Serif" font-size="11.00" fill="#000000">Generated by SchemaSpy</text>
<!-- user_milestone_progress -->
<g id="node1" class="node">
<title>user_milestone_progress</title>
<g id="a_node1"><a xlink:href="../../tables/user_milestone_progress.html" xlink:title="user_milestone_progress" target="_top">
<polygon fill="#ffffff" stroke="transparent" points="223,-106.7 223,-284.7 581,-284.7 581,-106.7 223,-106.7"/>
<polygon fill="#f5f5f5" stroke="transparent" points="225,-259.7 225,-282.7 579,-282.7 579,-259.7 225,-259.7"/>
<polygon fill="none" stroke="#000000" points="225,-259.7 225,-282.7 579,-282.7 579,-259.7 225,-259.7"/>
<text text-anchor="start" x="230" y="-268.3" font-family="Helvetica,sans-Serif" font-weight="bold" font-size="11.00" fill="#000000">user_milestone_progress</text>
<text text-anchor="start" x="544.0437" y="-267.8" font-family="Helvetica,sans-Serif" font-size="11.00" fill="#000000">[table]</text>
<polygon fill="none" stroke="#000000" points="225,-237.7 225,-259.7 428,-259.7 428,-237.7 225,-237.7"/>
<image xlink:href="../../images/primaryKeys.png" width="11px" height="12px" preserveAspectRatio="xMinYMin meet" x="230" y="-254.7"/>
<text text-anchor="start" x="245" y="-244.8" font-family="Helvetica,sans-Serif" font-size="11.00" fill="#000000">id</text>
<polygon fill="none" stroke="#000000" points="428,-237.7 428,-259.7 579,-259.7 579,-237.7 428,-237.7"/>
<text text-anchor="start" x="431" y="-245.4" font-family="Helvetica,sans-Serif" font-size="11.00" fill="#000000">bigserial[19]</text>
<polygon fill="#ffffff" stroke="transparent" points="225,-215.7 225,-237.7 428,-237.7 428,-215.7 225,-215.7"/>
<polygon fill="none" stroke="#000000" points="225,-215.7 225,-237.7 428,-237.7 428,-215.7 225,-215.7"/>
<image xlink:href="../../images/foreignKeys.png" width="11px" height="12px" preserveAspectRatio="xMinYMin meet" x="230" y="-232.7"/>
<text text-anchor="start" x="245" y="-222.8" font-family="Helvetica,sans-Serif" font-size="11.00" fill="#000000">user_skill_id</text>
<polygon fill="none" stroke="#000000" points="428,-215.7 428,-237.7 579,-237.7 579,-215.7 428,-215.7"/>
<text text-anchor="start" x="431" y="-223.4" font-family="Helvetica,sans-Serif" font-size="11.00" fill="#000000">int8[19]</text>
<polygon fill="#ffffff" stroke="transparent" points="225,-193.7 225,-215.7 428,-215.7 428,-193.7 225,-193.7"/>
<polygon fill="none" stroke="#000000" points="225,-193.7 225,-215.7 428,-215.7 428,-193.7 225,-193.7"/>
<image xlink:href="../../images/foreignKeys.png" width="11px" height="12px" preserveAspectRatio="xMinYMin meet" x="230" y="-210.7"/>
<text text-anchor="start" x="245" y="-200.8" font-family="Helvetica,sans-Serif" font-size="11.00" fill="#000000">milestone_id</text>
<polygon fill="none" stroke="#000000" points="428,-193.7 428,-215.7 579,-215.7 579,-193.7 428,-193.7"/>
<text text-anchor="start" x="431" y="-201.4" font-family="Helvetica,sans-Serif" font-size="11.00" fill="#000000">int8[19]</text>
<polygon fill="none" stroke="#000000" points="225,-171.7 225,-193.7 428,-193.7 428,-171.7 225,-171.7"/>
<text text-anchor="start" x="245" y="-178.8" font-family="Helvetica,sans-Serif" font-size="11.00" fill="#000000">status</text>
<polygon fill="none" stroke="#000000" points="428,-171.7 428,-193.7 579,-193.7 579,-171.7 428,-171.7"/>
<text text-anchor="start" x="430.7477" y="-179.4" font-family="Helvetica,sans-Serif" font-size="11.00" fill="#000000">progress_status[2147483647]</text>
<polygon fill="none" stroke="#000000" points="225,-149.7 225,-171.7 428,-171.7 428,-149.7 225,-149.7"/>
<text text-anchor="start" x="245" y="-156.8" font-family="Helvetica,sans-Serif" font-size="11.00" fill="#000000">completed_at</text>
<polygon fill="none" stroke="#000000" points="428,-149.7 428,-171.7 579,-171.7 579,-149.7 428,-149.7"/>
<text text-anchor="start" x="431" y="-157.4" font-family="Helvetica,sans-Serif" font-size="11.00" fill="#000000">timestamptz[35,6]</text>
<polygon fill="none" stroke="#000000" points="225,-127.7 225,-149.7 428,-149.7 428,-127.7 225,-127.7"/>
<text text-anchor="start" x="245" y="-134.8" font-family="Helvetica,sans-Serif" font-size="11.00" fill="#000000">postponed_until</text>
<polygon fill="none" stroke="#000000" points="428,-127.7 428,-149.7 579,-149.7 579,-127.7 428,-127.7"/>
<text text-anchor="start" x="431" y="-135.4" font-family="Helvetica,sans-Serif" font-size="11.00" fill="#000000">timestamptz[35,6]</text>
<polygon fill="#ffffff" stroke="transparent" points="225,-108.7 225,-127.7 579,-127.7 579,-108.7 225,-108.7"/>
<polygon fill="none" stroke="#000000" points="225,-108.7 225,-127.7 579,-127.7 579,-108.7 225,-108.7"/>
<polygon fill="#ffffff" stroke="transparent" points="226,-109.7 226,-126.7 347,-126.7 347,-109.7 226,-109.7"/>
<text text-anchor="start" x="228" y="-114.8" font-family="Helvetica,sans-Serif" font-size="11.00" fill="#000000">&lt; 2</text>
<polygon fill="#ffffff" stroke="transparent" points="347,-109.7 347,-126.7 458,-126.7 458,-109.7 347,-109.7"/>
<text text-anchor="start" x="399.4431" y="-114.8" font-family="Helvetica,sans-Serif" font-size="11.00" fill="#000000"> &#160;</text>
<polygon fill="#ffffff" stroke="transparent" points="458,-109.7 458,-126.7 578,-126.7 578,-109.7 458,-109.7"/>
<text text-anchor="start" x="560.4053" y="-114.8" font-family="Helvetica,sans-Serif" font-size="11.00" fill="#000000">0 &gt;</text>
<polygon fill="#000000" stroke="#000000" points="347,-109.7 347,-126.7 347,-126.7 347,-109.7 347,-109.7"/>
<polygon fill="#000000" stroke="#000000" points="458,-109.7 458,-126.7 458,-126.7 458,-109.7 458,-109.7"/>
<polygon fill="none" stroke="#000000" stroke-width="2" points="224,-107.7 224,-283.7 580,-283.7 580,-107.7 224,-107.7"/>
</a>
</g>
</g>
<!-- milestones -->
<g id="node2" class="node">
<title>milestones</title>
<g id="a_node2"><a xlink:href="../../tables/milestones.html" xlink:title="milestones" target="_top">
<polygon fill="#ffffff" stroke="transparent" points="8,-38.2 8,-165.2 174,-165.2 174,-38.2 8,-38.2"/>
<polygon fill="#f5f5f5" stroke="transparent" points="8,-141.7 8,-164.7 174,-164.7 174,-141.7 8,-141.7"/>
<polygon fill="none" stroke="#000000" points="8,-141.7 8,-164.7 174,-164.7 174,-141.7 8,-141.7"/>
<text text-anchor="start" x="13" y="-150.3" font-family="Helvetica,sans-Serif" font-weight="bold" font-size="11.00" fill="#000000">milestones</text>
<text text-anchor="start" x="139.0437" y="-149.8" font-family="Helvetica,sans-Serif" font-size="11.00" fill="#000000">[table]</text>
<polygon fill="none" stroke="#000000" points="8,-119.7 8,-141.7 174,-141.7 174,-119.7 8,-119.7"/>
<image xlink:href="../../images/primaryKeys.png" width="11px" height="12px" preserveAspectRatio="xMinYMin meet" x="13" y="-136.7"/>
<text text-anchor="start" x="28" y="-126.8" font-family="Helvetica,sans-Serif" font-size="11.00" fill="#000000">id</text>
<polygon fill="#ffffff" stroke="transparent" points="8,-97.7 8,-119.7 174,-119.7 174,-97.7 8,-97.7"/>
<polygon fill="none" stroke="#000000" points="8,-97.7 8,-119.7 174,-119.7 174,-97.7 8,-97.7"/>
<image xlink:href="../../images/foreignKeys.png" width="11px" height="12px" preserveAspectRatio="xMinYMin meet" x="13" y="-114.7"/>
<text text-anchor="start" x="28" y="-104.8" font-family="Helvetica,sans-Serif" font-size="11.00" fill="#000000">roadmap_version_id</text>
<polygon fill="#ffffff" stroke="transparent" points="8,-75.7 8,-97.7 174,-97.7 174,-75.7 8,-75.7"/>
<polygon fill="none" stroke="#000000" points="8,-75.7 8,-97.7 174,-97.7 174,-75.7 8,-75.7"/>
<text text-anchor="start" x="28" y="-82.8" font-family="Helvetica,sans-Serif" font-size="11.00" fill="#000000">order_index</text>
<polygon fill="none" stroke="#000000" points="8,-56.7 8,-75.7 174,-75.7 174,-56.7 8,-56.7"/>
<text text-anchor="start" x="11" y="-62.8" font-family="Helvetica,sans-Serif" font-size="11.00" fill="#000000">...</text>
<polygon fill="#ffffff" stroke="transparent" points="8,-37.7 8,-56.7 174,-56.7 174,-37.7 8,-37.7"/>
<polygon fill="none" stroke="#000000" points="8,-37.7 8,-56.7 174,-56.7 174,-37.7 8,-37.7"/>
<polygon fill="#ffffff" stroke="transparent" points="9,-38.7 9,-55.7 67,-55.7 67,-38.7 9,-38.7"/>
<text text-anchor="start" x="11" y="-43.8" font-family="Helvetica,sans-Serif" font-size="11.00" fill="#000000">&lt; 1</text>
<polygon fill="#ffffff" stroke="transparent" points="67,-38.7 67,-55.7 116,-55.7 116,-38.7 67,-38.7"/>
<text text-anchor="start" x="88.4431" y="-43.8" font-family="Helvetica,sans-Serif" font-size="11.00" fill="#000000"> &#160;</text>
<polygon fill="#ffffff" stroke="transparent" points="116,-38.7 116,-55.7 173,-55.7 173,-38.7 116,-38.7"/>
<text text-anchor="start" x="155.4053" y="-43.8" font-family="Helvetica,sans-Serif" font-size="11.00" fill="#000000">1 &gt;</text>
<polygon fill="#000000" stroke="#000000" points="67,-38.7 67,-55.7 67,-55.7 67,-38.7 67,-38.7"/>
<polygon fill="#000000" stroke="#000000" points="116,-38.7 116,-55.7 116,-55.7 116,-38.7 116,-38.7"/>
</a>
</g>
</g>
<!-- user_milestone_progress&#45;&gt;milestones -->
<g id="edge1" class="edge">
<title>user_milestone_progress:w&#45;&gt;milestones:e</title>
<path fill="none" stroke="#000000" d="M211.0503,-200.071C192.2607,-183.8706 207.8581,-130.7 174,-130.7"/>
<polygon fill="#000000" stroke="#000000" points="217.4071,-202.1804 223.8662,-208.1168 221.2036,-203.4402 225,-204.7 225,-204.7 225,-204.7 221.2036,-203.4402 226.1338,-201.2832 217.4071,-202.1804 217.4071,-202.1804"/>
<ellipse fill="none" stroke="#000000" cx="214.37" cy="-201.1725" rx="3.2" ry="3.2"/>
</g>
<!-- userskill -->
<g id="node3" class="node">
<title>userskill</title>
<g id="a_node3"><a xlink:href="../../tables/userskill.html" xlink:title="userskill" target="_top">
<polygon fill="#ffffff" stroke="transparent" points="8,-186.2 8,-335.2 174,-335.2 174,-186.2 8,-186.2"/>
<polygon fill="#f5f5f5" stroke="transparent" points="8,-311.7 8,-334.7 174,-334.7 174,-311.7 8,-311.7"/>
<polygon fill="none" stroke="#000000" points="8,-311.7 8,-334.7 174,-334.7 174,-311.7 8,-311.7"/>
<text text-anchor="start" x="13" y="-320.3" font-family="Helvetica,sans-Serif" font-weight="bold" font-size="11.00" fill="#000000">userskill</text>
<text text-anchor="start" x="139.0437" y="-319.8" font-family="Helvetica,sans-Serif" font-size="11.00" fill="#000000">[table]</text>
<polygon fill="none" stroke="#000000" points="8,-289.7 8,-311.7 174,-311.7 174,-289.7 8,-289.7"/>
<image xlink:href="../../images/primaryKeys.png" width="11px" height="12px" preserveAspectRatio="xMinYMin meet" x="13" y="-306.7"/>
<text text-anchor="start" x="28" y="-296.8" font-family="Helvetica,sans-Serif" font-size="11.00" fill="#000000">id</text>
<polygon fill="none" stroke="#000000" points="8,-267.7 8,-289.7 174,-289.7 174,-267.7 8,-267.7"/>
<image xlink:href="../../images/foreignKeys.png" width="11px" height="12px" preserveAspectRatio="xMinYMin meet" x="13" y="-284.7"/>
<text text-anchor="start" x="28" y="-274.8" font-family="Helvetica,sans-Serif" font-size="11.00" fill="#000000">user_id</text>
<polygon fill="none" stroke="#000000" points="8,-245.7 8,-267.7 174,-267.7 174,-245.7 8,-245.7"/>
<image xlink:href="../../images/foreignKeys.png" width="11px" height="12px" preserveAspectRatio="xMinYMin meet" x="13" y="-262.7"/>
<text text-anchor="start" x="28" y="-252.8" font-family="Helvetica,sans-Serif" font-size="11.00" fill="#000000">skill_id</text>
<polygon fill="none" stroke="#000000" points="8,-223.7 8,-245.7 174,-245.7 174,-223.7 8,-223.7"/>
<image xlink:href="../../images/foreignKeys.png" width="11px" height="12px" preserveAspectRatio="xMinYMin meet" x="13" y="-240.7"/>
<text text-anchor="start" x="28" y="-230.8" font-family="Helvetica,sans-Serif" font-size="11.00" fill="#000000">roadmap_version_id</text>
<polygon fill="none" stroke="#000000" points="8,-204.7 8,-223.7 174,-223.7 174,-204.7 8,-204.7"/>
<text text-anchor="start" x="11" y="-210.8" font-family="Helvetica,sans-Serif" font-size="11.00" fill="#000000">...</text>
<polygon fill="#ffffff" stroke="transparent" points="8,-185.7 8,-204.7 174,-204.7 174,-185.7 8,-185.7"/>
<polygon fill="none" stroke="#000000" points="8,-185.7 8,-204.7 174,-204.7 174,-185.7 8,-185.7"/>
<polygon fill="#ffffff" stroke="transparent" points="9,-186.7 9,-203.7 67,-203.7 67,-186.7 9,-186.7"/>
<text text-anchor="start" x="11" y="-191.8" font-family="Helvetica,sans-Serif" font-size="11.00" fill="#000000">&lt; 3</text>
<polygon fill="#ffffff" stroke="transparent" points="67,-186.7 67,-203.7 116,-203.7 116,-186.7 67,-186.7"/>
<text text-anchor="start" x="88.4431" y="-191.8" font-family="Helvetica,sans-Serif" font-size="11.00" fill="#000000"> &#160;</text>
<polygon fill="#ffffff" stroke="transparent" points="116,-186.7 116,-203.7 173,-203.7 173,-186.7 116,-186.7"/>
<text text-anchor="start" x="155.4053" y="-191.8" font-family="Helvetica,sans-Serif" font-size="11.00" fill="#000000">1 &gt;</text>
<polygon fill="#000000" stroke="#000000" points="67,-186.7 67,-203.7 67,-203.7 67,-186.7 67,-186.7"/>
<polygon fill="#000000" stroke="#000000" points="116,-186.7 116,-203.7 116,-203.7 116,-186.7 116,-186.7"/>
</a>
</g>
</g>
<!-- user_milestone_progress&#45;&gt;userskill -->
<g id="edge2" class="edge">
<title>user_milestone_progress:w&#45;&gt;userskill:e</title>
<path fill="none" stroke="#000000" d="M211.0503,-231.329C192.2607,-247.5294 207.8581,-300.7 174,-300.7"/>
<polygon fill="#000000" stroke="#000000" points="217.4071,-229.2196 226.1338,-230.1168 221.2036,-227.9598 225,-226.7 225,-226.7 225,-226.7 221.2036,-227.9598 223.8662,-223.2832 217.4071,-229.2196 217.4071,-229.2196"/>
<ellipse fill="none" stroke="#000000" cx="214.37" cy="-230.2275" rx="3.2" ry="3.2"/>
</g>
</g>
</svg>
