<?xml version="1.0" encoding="UTF-8" standalone="no"?>
<!DOCTYPE svg PUBLIC "-//W3C//DTD SVG 1.1//EN"
 "http://www.w3.org/Graphics/SVG/1.1/DTD/svg11.dtd">
<!-- Generated by graphviz version 2.40.1 (20161225.0304)
 -->
<!-- Title: oneDegreeRelationshipsDiagram Pages: 1 -->
<svg width="480pt" height="223pt"
 viewBox="0.00 0.00 480.00 222.70" xmlns="http://www.w3.org/2000/svg" xmlns:xlink="http://www.w3.org/1999/xlink">
<g id="graph0" class="graph" transform="scale(1 1) rotate(0) translate(4 218.7)">
<title>oneDegreeRelationshipsDiagram</title>
<polygon fill="#ffffff" stroke="transparent" points="-4,4 -4,-218.7 476,-218.7 476,4 -4,4"/>
<text text-anchor="middle" x="72.4936" y="-7.3" font-family="Helvetica,sans-Serif" font-size="11.00" fill="#000000">Generated by SchemaSpy</text>
<!-- username_history -->
<g id="node1" class="node">
<title>username_history</title>
<g id="a_node1"><a xlink:href="../../tables/username_history.html" xlink:title="username_history" target="_top">
<polygon fill="#ffffff" stroke="transparent" points="211,-76.7 211,-210.7 464,-210.7 464,-76.7 211,-76.7"/>
<polygon fill="#f5f5f5" stroke="transparent" points="213.5,-185.7 213.5,-208.7 462.5,-208.7 462.5,-185.7 213.5,-185.7"/>
<polygon fill="none" stroke="#000000" points="213.5,-185.7 213.5,-208.7 462.5,-208.7 462.5,-185.7 213.5,-185.7"/>
<text text-anchor="start" x="218.5" y="-194.3" font-family="Helvetica,sans-Serif" font-weight="bold" font-size="11.00" fill="#000000">username_history</text>
<text text-anchor="start" x="427.5437" y="-193.8" font-family="Helvetica,sans-Serif" font-size="11.00" fill="#000000">[table]</text>
<polygon fill="none" stroke="#000000" points="213.5,-163.7 213.5,-185.7 364.5,-185.7 364.5,-163.7 213.5,-163.7"/>
<image xlink:href="../../images/primaryKeys.png" width="11px" height="12px" preserveAspectRatio="xMinYMin meet" x="218.5" y="-180.7"/>
<text text-anchor="start" x="233.5" y="-170.8" font-family="Helvetica,sans-Serif" font-size="11.00" fill="#000000">id</text>
<polygon fill="none" stroke="#000000" points="364.5,-163.7 364.5,-185.7 462.5,-185.7 462.5,-163.7 364.5,-163.7"/>
<text text-anchor="start" x="367.5" y="-171.4" font-family="Helvetica,sans-Serif" font-size="11.00" fill="#000000">bigserial[19]</text>
<polygon fill="none" stroke="#000000" points="213.5,-141.7 213.5,-163.7 364.5,-163.7 364.5,-141.7 213.5,-141.7"/>
<image xlink:href="../../images/foreignKeys.png" width="11px" height="12px" preserveAspectRatio="xMinYMin meet" x="218.5" y="-158.7"/>
<text text-anchor="start" x="233.5" y="-148.8" font-family="Helvetica,sans-Serif" font-size="11.00" fill="#000000">user_id</text>
<polygon fill="none" stroke="#000000" points="364.5,-141.7 364.5,-163.7 462.5,-163.7 462.5,-141.7 364.5,-141.7"/>
<text text-anchor="start" x="367.5" y="-149.4" font-family="Helvetica,sans-Serif" font-size="11.00" fill="#000000">int8[19]</text>
<polygon fill="#ffffff" stroke="transparent" points="213.5,-119.7 213.5,-141.7 364.5,-141.7 364.5,-119.7 213.5,-119.7"/>
<polygon fill="none" stroke="#000000" points="213.5,-119.7 213.5,-141.7 364.5,-141.7 364.5,-119.7 213.5,-119.7"/>
<text text-anchor="start" x="233.5" y="-126.8" font-family="Helvetica,sans-Serif" font-size="11.00" fill="#000000">username</text>
<polygon fill="none" stroke="#000000" points="364.5,-119.7 364.5,-141.7 462.5,-141.7 462.5,-119.7 364.5,-119.7"/>
<text text-anchor="start" x="367.0338" y="-127.4" font-family="Helvetica,sans-Serif" font-size="11.00" fill="#000000">citext[2147483647]</text>
<polygon fill="none" stroke="#000000" points="213.5,-97.7 213.5,-119.7 364.5,-119.7 364.5,-97.7 213.5,-97.7"/>
<text text-anchor="start" x="233.5" y="-104.8" font-family="Helvetica,sans-Serif" font-size="11.00" fill="#000000">created_at</text>
<polygon fill="none" stroke="#000000" points="364.5,-97.7 364.5,-119.7 462.5,-119.7 462.5,-97.7 364.5,-97.7"/>
<text text-anchor="start" x="367.5" y="-105.4" font-family="Helvetica,sans-Serif" font-size="11.00" fill="#000000">timestamptz[35,6]</text>
<polygon fill="#ffffff" stroke="transparent" points="213.5,-78.7 213.5,-97.7 462.5,-97.7 462.5,-78.7 213.5,-78.7"/>
<polygon fill="none" stroke="#000000" points="213.5,-78.7 213.5,-97.7 462.5,-97.7 462.5,-78.7 213.5,-78.7"/>
<polygon fill="#ffffff" stroke="transparent" points="214.5,-79.7 214.5,-96.7 300.5,-96.7 300.5,-79.7 214.5,-79.7"/>
<text text-anchor="start" x="216.5" y="-84.8" font-family="Helvetica,sans-Serif" font-size="11.00" fill="#000000">&lt; 1</text>
<polygon fill="#ffffff" stroke="transparent" points="300.5,-79.7 300.5,-96.7 376.5,-96.7 376.5,-79.7 300.5,-79.7"/>
<text text-anchor="start" x="335.4431" y="-84.8" font-family="Helvetica,sans-Serif" font-size="11.00" fill="#000000"> &#160;</text>
<polygon fill="#ffffff" stroke="transparent" points="376.5,-79.7 376.5,-96.7 461.5,-96.7 461.5,-79.7 376.5,-79.7"/>
<text text-anchor="start" x="443.9053" y="-84.8" font-family="Helvetica,sans-Serif" font-size="11.00" fill="#000000">0 &gt;</text>
<polygon fill="#000000" stroke="#000000" points="300.5,-79.7 300.5,-96.7 300.5,-96.7 300.5,-79.7 300.5,-79.7"/>
<polygon fill="#000000" stroke="#000000" points="376.5,-79.7 376.5,-96.7 376.5,-96.7 376.5,-79.7 376.5,-79.7"/>
<polygon fill="none" stroke="#000000" stroke-width="2" points="212,-77.7 212,-209.7 463,-209.7 463,-77.7 212,-77.7"/>
</a>
</g>
</g>
<!-- users -->
<g id="node2" class="node">
<title>users</title>
<g id="a_node2"><a xlink:href="../../tables/users.html" xlink:title="users" target="_top">
<polygon fill="#ffffff" stroke="transparent" points="8,-38.2 8,-187.2 162,-187.2 162,-38.2 8,-38.2"/>
<polygon fill="#f5f5f5" stroke="transparent" points="8,-163.7 8,-186.7 162,-186.7 162,-163.7 8,-163.7"/>
<polygon fill="none" stroke="#000000" points="8,-163.7 8,-186.7 162,-186.7 162,-163.7 8,-163.7"/>
<text text-anchor="start" x="13" y="-172.3" font-family="Helvetica,sans-Serif" font-weight="bold" font-size="11.00" fill="#000000">users</text>
<text text-anchor="start" x="127.0437" y="-171.8" font-family="Helvetica,sans-Serif" font-size="11.00" fill="#000000">[table]</text>
<polygon fill="none" stroke="#000000" points="8,-141.7 8,-163.7 162,-163.7 162,-141.7 8,-141.7"/>
<image xlink:href="../../images/primaryKeys.png" width="11px" height="12px" preserveAspectRatio="xMinYMin meet" x="13" y="-158.7"/>
<text text-anchor="start" x="28" y="-148.8" font-family="Helvetica,sans-Serif" font-size="11.00" fill="#000000">id</text>
<polygon fill="#ffffff" stroke="transparent" points="8,-119.7 8,-141.7 162,-141.7 162,-119.7 8,-119.7"/>
<polygon fill="none" stroke="#000000" points="8,-119.7 8,-141.7 162,-141.7 162,-119.7 8,-119.7"/>
<text text-anchor="start" x="28" y="-126.8" font-family="Helvetica,sans-Serif" font-size="11.00" fill="#000000">public_id</text>
<polygon fill="#ffffff" stroke="transparent" points="8,-97.7 8,-119.7 162,-119.7 162,-97.7 8,-97.7"/>
<polygon fill="none" stroke="#000000" points="8,-97.7 8,-119.7 162,-119.7 162,-97.7 8,-97.7"/>
<text text-anchor="start" x="28" y="-104.8" font-family="Helvetica,sans-Serif" font-size="11.00" fill="#000000">email</text>
<polygon fill="#ffffff" stroke="transparent" points="8,-75.7 8,-97.7 162,-97.7 162,-75.7 8,-75.7"/>
<polygon fill="none" stroke="#000000" points="8,-75.7 8,-97.7 162,-97.7 162,-75.7 8,-75.7"/>
<text text-anchor="start" x="28" y="-82.8" font-family="Helvetica,sans-Serif" font-size="11.00" fill="#000000">username</text>
<polygon fill="none" stroke="#000000" points="8,-56.7 8,-75.7 162,-75.7 162,-56.7 8,-56.7"/>
<text text-anchor="start" x="11" y="-62.8" font-family="Helvetica,sans-Serif" font-size="11.00" fill="#000000">...</text>
<polygon fill="#ffffff" stroke="transparent" points="8,-37.7 8,-56.7 162,-56.7 162,-37.7 8,-37.7"/>
<polygon fill="none" stroke="#000000" points="8,-37.7 8,-56.7 162,-56.7 162,-37.7 8,-37.7"/>
<polygon fill="#ffffff" stroke="transparent" points="9,-38.7 9,-55.7 55,-55.7 55,-38.7 9,-38.7"/>
<text text-anchor="start" x="11" y="-43.8" font-family="Helvetica,sans-Serif" font-size="11.00" fill="#000000"> &#160;</text>
<polygon fill="#ffffff" stroke="transparent" points="55,-38.7 55,-55.7 101,-55.7 101,-38.7 55,-38.7"/>
<text text-anchor="start" x="74.9431" y="-43.8" font-family="Helvetica,sans-Serif" font-size="11.00" fill="#000000"> &#160;</text>
<polygon fill="#ffffff" stroke="transparent" points="101,-38.7 101,-55.7 161,-55.7 161,-38.7 101,-38.7"/>
<text text-anchor="start" x="137.2904" y="-43.8" font-family="Helvetica,sans-Serif" font-size="11.00" fill="#000000">16 &gt;</text>
<polygon fill="#000000" stroke="#000000" points="55,-38.7 55,-55.7 55,-55.7 55,-38.7 55,-38.7"/>
<polygon fill="#000000" stroke="#000000" points="101,-38.7 101,-55.7 101,-55.7 101,-38.7 101,-38.7"/>
</a>
</g>
</g>
<!-- username_history&#45;&gt;users -->
<g id="edge1" class="edge">
<title>username_history:w&#45;&gt;users:e</title>
<path fill="none" stroke="#000000" d="M199.0156,-152.7C186.6771,-152.7 179.1667,-152.7 162,-152.7"/>
<polygon fill="#000000" stroke="#000000" points="205.5,-152.7001 213.5,-156.3 209.5,-152.7 213.5,-152.7 213.5,-152.7 213.5,-152.7 209.5,-152.7 213.5,-149.1 205.5,-152.7001 205.5,-152.7001"/>
<ellipse fill="none" stroke="#000000" cx="202.3" cy="-152.7001" rx="3.2" ry="3.2"/>
</g>
</g>
</svg>
