<?xml version="1.0" encoding="UTF-8" standalone="no"?>
<!DOCTYPE svg PUBLIC "-//W3C//DTD SVG 1.1//EN"
 "http://www.w3.org/Graphics/SVG/1.1/DTD/svg11.dtd">
<!-- Generated by graphviz version 2.40.1 (20161225.0304)
 -->
<!-- Title: oneDegreeRelationshipsDiagram Pages: 1 -->
<svg width="519pt" height="250pt"
 viewBox="0.00 0.00 519.00 250.20" xmlns="http://www.w3.org/2000/svg" xmlns:xlink="http://www.w3.org/1999/xlink">
<g id="graph0" class="graph" transform="scale(1 1) rotate(0) translate(4 246.2)">
<title>oneDegreeRelationshipsDiagram</title>
<polygon fill="#ffffff" stroke="transparent" points="-4,4 -4,-246.2 515,-246.2 515,4 -4,4"/>
<text text-anchor="middle" x="72.4936" y="-7.3" font-family="Helvetica,sans-Serif" font-size="11.00" fill="#000000">Generated by SchemaSpy</text>
<!-- user_identity -->
<g id="node1" class="node">
<title>user_identity</title>
<g id="a_node1"><a xlink:href="../../tables/user_identity.html" xlink:title="user_identity" target="_top">
<polygon fill="#ffffff" stroke="transparent" points="211,-38.2 211,-238.2 503,-238.2 503,-38.2 211,-38.2"/>
<polygon fill="#f5f5f5" stroke="transparent" points="213,-213.2 213,-236.2 501,-236.2 501,-213.2 213,-213.2"/>
<polygon fill="none" stroke="#000000" points="213,-213.2 213,-236.2 501,-236.2 501,-213.2 213,-213.2"/>
<text text-anchor="start" x="218" y="-221.8" font-family="Helvetica,sans-Serif" font-weight="bold" font-size="11.00" fill="#000000">user_identity</text>
<text text-anchor="start" x="466.0437" y="-221.3" font-family="Helvetica,sans-Serif" font-size="11.00" fill="#000000">[table]</text>
<polygon fill="none" stroke="#000000" points="213,-191.2 213,-213.2 355,-213.2 355,-191.2 213,-191.2"/>
<image xlink:href="../../images/primaryKeys.png" width="11px" height="12px" preserveAspectRatio="xMinYMin meet" x="218" y="-208.2"/>
<text text-anchor="start" x="233" y="-198.3" font-family="Helvetica,sans-Serif" font-size="11.00" fill="#000000">id</text>
<polygon fill="none" stroke="#000000" points="355,-191.2 355,-213.2 501,-213.2 501,-191.2 355,-191.2"/>
<text text-anchor="start" x="358" y="-198.9" font-family="Helvetica,sans-Serif" font-size="11.00" fill="#000000">bigserial[19]</text>
<polygon fill="#ffffff" stroke="transparent" points="213,-169.2 213,-191.2 355,-191.2 355,-169.2 213,-169.2"/>
<polygon fill="none" stroke="#000000" points="213,-169.2 213,-191.2 355,-191.2 355,-169.2 213,-169.2"/>
<image xlink:href="../../images/foreignKeys.png" width="11px" height="12px" preserveAspectRatio="xMinYMin meet" x="218" y="-186.2"/>
<text text-anchor="start" x="233" y="-176.3" font-family="Helvetica,sans-Serif" font-size="11.00" fill="#000000">user_id</text>
<polygon fill="none" stroke="#000000" points="355,-169.2 355,-191.2 501,-191.2 501,-169.2 355,-169.2"/>
<text text-anchor="start" x="358" y="-176.9" font-family="Helvetica,sans-Serif" font-size="11.00" fill="#000000">int8[19]</text>
<polygon fill="#ffffff" stroke="transparent" points="213,-147.2 213,-169.2 355,-169.2 355,-147.2 213,-147.2"/>
<polygon fill="none" stroke="#000000" points="213,-147.2 213,-169.2 355,-169.2 355,-147.2 213,-147.2"/>
<text text-anchor="start" x="233" y="-154.3" font-family="Helvetica,sans-Serif" font-size="11.00" fill="#000000">provider</text>
<polygon fill="none" stroke="#000000" points="355,-147.2 355,-169.2 501,-169.2 501,-147.2 355,-147.2"/>
<text text-anchor="start" x="357.6957" y="-154.9" font-family="Helvetica,sans-Serif" font-size="11.00" fill="#000000">provider_name[2147483647]</text>
<polygon fill="#ffffff" stroke="transparent" points="213,-125.2 213,-147.2 355,-147.2 355,-125.2 213,-125.2"/>
<polygon fill="none" stroke="#000000" points="213,-125.2 213,-147.2 355,-147.2 355,-125.2 213,-125.2"/>
<text text-anchor="start" x="233" y="-132.3" font-family="Helvetica,sans-Serif" font-size="11.00" fill="#000000">provider_user_id</text>
<polygon fill="none" stroke="#000000" points="355,-125.2 355,-147.2 501,-147.2 501,-125.2 355,-125.2"/>
<text text-anchor="start" x="358" y="-132.9" font-family="Helvetica,sans-Serif" font-size="11.00" fill="#000000">varchar[255]</text>
<polygon fill="none" stroke="#000000" points="213,-103.2 213,-125.2 355,-125.2 355,-103.2 213,-103.2"/>
<text text-anchor="start" x="233" y="-110.3" font-family="Helvetica,sans-Serif" font-size="11.00" fill="#000000">password_hash</text>
<polygon fill="none" stroke="#000000" points="355,-103.2 355,-125.2 501,-125.2 501,-103.2 355,-103.2"/>
<text text-anchor="start" x="358" y="-110.9" font-family="Helvetica,sans-Serif" font-size="11.00" fill="#000000">text[2147483647]</text>
<polygon fill="none" stroke="#000000" points="213,-81.2 213,-103.2 355,-103.2 355,-81.2 213,-81.2"/>
<text text-anchor="start" x="233" y="-88.3" font-family="Helvetica,sans-Serif" font-size="11.00" fill="#000000">created_at</text>
<polygon fill="none" stroke="#000000" points="355,-81.2 355,-103.2 501,-103.2 501,-81.2 355,-81.2"/>
<text text-anchor="start" x="358" y="-88.9" font-family="Helvetica,sans-Serif" font-size="11.00" fill="#000000">timestamptz[35,6]</text>
<polygon fill="none" stroke="#000000" points="213,-59.2 213,-81.2 355,-81.2 355,-59.2 213,-59.2"/>
<text text-anchor="start" x="233" y="-66.3" font-family="Helvetica,sans-Serif" font-size="11.00" fill="#000000">updated_at</text>
<polygon fill="none" stroke="#000000" points="355,-59.2 355,-81.2 501,-81.2 501,-59.2 355,-59.2"/>
<text text-anchor="start" x="358" y="-66.9" font-family="Helvetica,sans-Serif" font-size="11.00" fill="#000000">timestamptz[35,6]</text>
<polygon fill="#ffffff" stroke="transparent" points="213,-40.2 213,-59.2 501,-59.2 501,-40.2 213,-40.2"/>
<polygon fill="none" stroke="#000000" points="213,-40.2 213,-59.2 501,-59.2 501,-40.2 213,-40.2"/>
<polygon fill="#ffffff" stroke="transparent" points="214,-41.2 214,-58.2 313,-58.2 313,-41.2 214,-41.2"/>
<text text-anchor="start" x="216" y="-46.3" font-family="Helvetica,sans-Serif" font-size="11.00" fill="#000000">&lt; 1</text>
<polygon fill="#ffffff" stroke="transparent" points="313,-41.2 313,-58.2 402,-58.2 402,-41.2 313,-41.2"/>
<text text-anchor="start" x="354.4431" y="-46.3" font-family="Helvetica,sans-Serif" font-size="11.00" fill="#000000"> &#160;</text>
<polygon fill="#ffffff" stroke="transparent" points="402,-41.2 402,-58.2 500,-58.2 500,-41.2 402,-41.2"/>
<text text-anchor="start" x="482.4053" y="-46.3" font-family="Helvetica,sans-Serif" font-size="11.00" fill="#000000">0 &gt;</text>
<polygon fill="#000000" stroke="#000000" points="313,-41.2 313,-58.2 313,-58.2 313,-41.2 313,-41.2"/>
<polygon fill="#000000" stroke="#000000" points="402,-41.2 402,-58.2 402,-58.2 402,-41.2 402,-41.2"/>
<polygon fill="none" stroke="#000000" stroke-width="2" points="212,-39.2 212,-237.2 502,-237.2 502,-39.2 212,-39.2"/>
</a>
</g>
</g>
<!-- users -->
<g id="node2" class="node">
<title>users</title>
<g id="a_node2"><a xlink:href="../../tables/users.html" xlink:title="users" target="_top">
<polygon fill="#ffffff" stroke="transparent" points="8,-65.7 8,-214.7 162,-214.7 162,-65.7 8,-65.7"/>
<polygon fill="#f5f5f5" stroke="transparent" points="8,-191.2 8,-214.2 162,-214.2 162,-191.2 8,-191.2"/>
<polygon fill="none" stroke="#000000" points="8,-191.2 8,-214.2 162,-214.2 162,-191.2 8,-191.2"/>
<text text-anchor="start" x="13" y="-199.8" font-family="Helvetica,sans-Serif" font-weight="bold" font-size="11.00" fill="#000000">users</text>
<text text-anchor="start" x="127.0437" y="-199.3" font-family="Helvetica,sans-Serif" font-size="11.00" fill="#000000">[table]</text>
<polygon fill="none" stroke="#000000" points="8,-169.2 8,-191.2 162,-191.2 162,-169.2 8,-169.2"/>
<image xlink:href="../../images/primaryKeys.png" width="11px" height="12px" preserveAspectRatio="xMinYMin meet" x="13" y="-186.2"/>
<text text-anchor="start" x="28" y="-176.3" font-family="Helvetica,sans-Serif" font-size="11.00" fill="#000000">id</text>
<polygon fill="#ffffff" stroke="transparent" points="8,-147.2 8,-169.2 162,-169.2 162,-147.2 8,-147.2"/>
<polygon fill="none" stroke="#000000" points="8,-147.2 8,-169.2 162,-169.2 162,-147.2 8,-147.2"/>
<text text-anchor="start" x="28" y="-154.3" font-family="Helvetica,sans-Serif" font-size="11.00" fill="#000000">public_id</text>
<polygon fill="#ffffff" stroke="transparent" points="8,-125.2 8,-147.2 162,-147.2 162,-125.2 8,-125.2"/>
<polygon fill="none" stroke="#000000" points="8,-125.2 8,-147.2 162,-147.2 162,-125.2 8,-125.2"/>
<text text-anchor="start" x="28" y="-132.3" font-family="Helvetica,sans-Serif" font-size="11.00" fill="#000000">email</text>
<polygon fill="#ffffff" stroke="transparent" points="8,-103.2 8,-125.2 162,-125.2 162,-103.2 8,-103.2"/>
<polygon fill="none" stroke="#000000" points="8,-103.2 8,-125.2 162,-125.2 162,-103.2 8,-103.2"/>
<text text-anchor="start" x="28" y="-110.3" font-family="Helvetica,sans-Serif" font-size="11.00" fill="#000000">username</text>
<polygon fill="none" stroke="#000000" points="8,-84.2 8,-103.2 162,-103.2 162,-84.2 8,-84.2"/>
<text text-anchor="start" x="11" y="-90.3" font-family="Helvetica,sans-Serif" font-size="11.00" fill="#000000">...</text>
<polygon fill="#ffffff" stroke="transparent" points="8,-65.2 8,-84.2 162,-84.2 162,-65.2 8,-65.2"/>
<polygon fill="none" stroke="#000000" points="8,-65.2 8,-84.2 162,-84.2 162,-65.2 8,-65.2"/>
<polygon fill="#ffffff" stroke="transparent" points="9,-66.2 9,-83.2 55,-83.2 55,-66.2 9,-66.2"/>
<text text-anchor="start" x="11" y="-71.3" font-family="Helvetica,sans-Serif" font-size="11.00" fill="#000000"> &#160;</text>
<polygon fill="#ffffff" stroke="transparent" points="55,-66.2 55,-83.2 101,-83.2 101,-66.2 55,-66.2"/>
<text text-anchor="start" x="74.9431" y="-71.3" font-family="Helvetica,sans-Serif" font-size="11.00" fill="#000000"> &#160;</text>
<polygon fill="#ffffff" stroke="transparent" points="101,-66.2 101,-83.2 161,-83.2 161,-66.2 101,-66.2"/>
<text text-anchor="start" x="137.2904" y="-71.3" font-family="Helvetica,sans-Serif" font-size="11.00" fill="#000000">16 &gt;</text>
<polygon fill="#000000" stroke="#000000" points="55,-66.2 55,-83.2 55,-83.2 55,-66.2 55,-66.2"/>
<polygon fill="#000000" stroke="#000000" points="101,-66.2 101,-83.2 101,-83.2 101,-66.2 101,-66.2"/>
</a>
</g>
</g>
<!-- user_identity&#45;&gt;users -->
<g id="edge1" class="edge">
<title>user_identity:w&#45;&gt;users:e</title>
<path fill="none" stroke="#000000" d="M198.276,-180.2C186.2815,-180.2 178.8229,-180.2 162,-180.2"/>
<polygon fill="#000000" stroke="#000000" points="205,-180.2001 213,-183.8 209,-180.2 213,-180.2 213,-180.2 213,-180.2 209,-180.2 213,-176.6 205,-180.2001 205,-180.2001"/>
<ellipse fill="none" stroke="#000000" cx="201.8" cy="-180.2001" rx="3.2" ry="3.2"/>
</g>
</g>
</svg>
